{
  "accessors": [
    {
      "bufferView": 2,
      "componentType": 5126,
      "count": 65532,
      "max": [
        0.22960418462753296,
        0.2054719626903534,
        0.5240416526794434
      ],
      "min": [
        -0.24188150465488434,
        -0.26718369126319885,
        -5.056452937424183e-05
      ],
      "type": "VEC3"
    },
    {
      "bufferView": 2,
      "byteOffset": 786384,
      "componentType": 5126,
      "count": 65532,
      "max": [
        0.9999656081199646,
        0.9999275803565979,
        0.9998677968978882
      ],
      "min": [
        -0.9999902248382568,
        -0.9999793171882629,
        -1.0
      ],
      "type": "VEC3"
    },
    {
      "bufferView": 1,
      "componentType": 5126,
      "count": 65532,
      "max": [
        0.9997556805610657,
        0.9743651151657104
      ],
      "min": [
        0.00023958997917361557,
        0.0002622200408950448
      ],
      "type": "VEC2"
    },
    {
      "bufferView": 0,
      "componentType": 5125,
      "count": 302418,
      "type": "SCALAR"
    },
    {
      "bufferView": 2,
      "byteOffset": 1572768,
      "componentType": 5126,
      "count": 60637,
      "max": [
        0.22960418462753296,
        0.234193354845047,
        0.5387988686561584
      ],
      "min": [
        -0.2394571751356125,
        -0.2871340811252594,
        -5.056452937424183e-05
      ],
      "type": "VEC3"
    },
    {
      "bufferView": 2,
      "byteOffset": 2300412,
      "componentType": 5126,
      "count": 60637,
      "max": [
        0.9999956488609314,
        0.999927282333374,
        0.9998677968978882
      ],
      "min": [
        -0.9997950792312622,
        -0.9999858736991882,
        -0.9999623894691467
      ],
      "type": "VEC3"
    },
    {
      "bufferView": 1,
      "byteOffset": 524256,
      "componentType": 5126,
      "count": 60637,
      "max": [
        0.999755859375,
        0.9860838651657104
      ],
      "min": [
        0.00020097462402191013,
        0.0002747966209426522
      ],
      "type": "VEC2"
    },
    {
      "bufferView": 0,
      "byteOffset": 1209672,
      "componentType": 5125,
      "count": 231102,
      "type": "SCALAR"
    }
  ],
  "asset": {
    "extras": {
      "author": "Thunk3D scanner (https://sketchfab.com/Diana123456)",
      "license": "CC-BY-4.0 (http://creativecommons.org/licenses/by/4.0/)",
      "source": "https://sketchfab.com/3d-models/capybara-by-ao-inomata-3e8ec79c8666456d9aeb747d722f6c48",
      "title": "Capybara-by-ao-inomata"
    },
    "generator": "Sketchfab-14.38.0",
    "version": "2.0"
  },
  "bufferViews": [
    {
      "buffer": 0,
      "byteLength": 2134080,
      "name": "floatBufferViews",
      "target": 34963
    },
    {
      "buffer": 0,
      "byteLength": 1009352,
      "byteOffset": 2134080,
      "byteStride": 8,
      "name": "floatBufferViews",
      "target": 34962
    },
    {
      "buffer": 0,
      "byteLength": 3028056,
      "byteOffset": 3143432,
      "byteStride": 12,
      "name": "floatBufferViews",
      "target": 34962
    }
  ],
  "buffers": [
    {
      "byteLength": 6171488,
      "uri": "scene.bin"
    }
  ],
  "materials": [
    {
      "doubleSided": true,
      "name": "INOMATA_8K",
      "pbrMetallicRoughness": {
        "metallicFactor": 0.0,
        "roughnessFactor": 0.9159103584746285
      }
    }
  ],
  "meshes": [
    {
      "name": "INOMATA_Model2_LOD1_INOMATA_8K_0",
      "primitives": [
        {
          "attributes": {
            "NORMAL": 1,
            "POSITION": 0,
            "TEXCOORD_0": 2
          },
          "indices": 3,
          "material": 0,
          "mode": 4
        }
      ]
    },
    {
      "name": "INOMATA_Model2_LOD1_INOMATA_8K_0",
      "primitives": [
        {
          "attributes": {
            "NORMAL": 5,
            "POSITION": 4,
            "TEXCOORD_0": 6
          },
          "indices": 7,
          "material": 0,
          "mode": 4
        }
      ]
    }
  ],
  "nodes": [
    {
      "children": [
        1
      ],
      "matrix": [
        1.0,
        0.0,
        0.0,
        0.0,
        0.0,
        2.220446049250313e-16,
        -1.0,
        0.0,
        0.0,
        1.0,
        2.220446049250313e-16,
        0.0,
        0.0,
        0.0,
        0.0,
        1.0
      ],
      "name": "Sketchfab_model"
    },
    {
      "children": [
        2
      ],
      "matrix": [
        1.0,
        0.0,
        0.0,
        0.0,
        0.0,
        0.0,
        1.0,
        0.0,
        0.0,
        -1.0,
        0.0,
        0.0,
        0.0,
        0.0,
        0.0,
        1.0
      ],
      "name": "INOMATA2_LOD0.fbx"
    },
    {
      "children": [
        3
      ],
      "name": "RootNode"
    },
    {
      "children": [
        4,
        5
      ],
      "matrix": [
        1.0,
        0.0,
        0.0,
        0.0,
        0.0,
        -1.6292067939183141e-07,
        -0.9999999999999868,
        0.0,
        0.0,
        0.9999999999999868,
        -1.6292067939183141e-07,
        0.0,
        0.0,
        0.0,
        0.0,
        1.0
      ],
      "name": "INOMATA_Model2_LOD1"
    },
    {
      "mesh": 0,
      "name": "INOMATA_Model2_LOD1_INOMATA_8K_0"
    },
    {
      "mesh": 1,
      "name": "INOMATA_Model2_LOD1_INOMATA_8K_0"
    }
  ],
  "scene": 0,
  "scenes": [
    {
      "name": "Sketchfab_Scene",
      "nodes": [
        0
      ]
    }
  ]
}
